<svg width="1198" height="98" viewBox="0 0 1198 98" fill="none" xmlns="http://www.w3.org/2000/svg">
<g filter="url(#filter0_d_226_35)">
<path d="M0.216001 4.376H30.168C37.4213 4.376 44.2907 5.18667 50.776 6.808C57.3467 8.42933 63.064 11.0747 67.928 14.744C72.792 18.328 76.632 23.0213 79.448 28.824C82.3493 34.6267 83.8 41.6667 83.8 49.944C83.8 57.2827 82.392 63.768 79.576 69.4C76.8453 74.9467 73.1333 79.64 68.44 83.48C63.7467 87.2347 58.328 90.0933 52.184 92.056C46.04 94.0187 39.5973 95 32.856 95H0.216001V4.376ZM20.184 76.568H30.552C35.16 76.568 39.4267 76.0987 43.352 75.16C47.3627 74.2213 50.8187 72.6853 53.72 70.552C56.6213 68.3333 58.8827 65.4747 60.504 61.976C62.2107 58.392 63.064 54.04 63.064 48.92C63.064 44.4827 62.2107 40.6427 60.504 37.4C58.8827 34.072 56.664 31.3413 53.848 29.208C51.032 27.0747 47.704 25.496 43.864 24.472C40.1093 23.3627 36.1413 22.808 31.96 22.808H20.184V76.568ZM128.573 56.344L94.525 4.376H119.357L138.557 38.296L158.909 4.376H182.589L148.541 56.344V95H128.573V56.344ZM199.029 4.376H218.997V76.568H255.989V95H199.029V4.376ZM305.795 4.376H322.307L361.731 95H339.203L331.395 75.8H296.195L288.643 95H266.627L305.795 4.376ZM313.475 30.744L302.467 58.904H324.611L313.475 30.744ZM379.806 4.376H406.942L445.47 67.352H445.726V4.376H465.694V95H439.582L400.03 30.488H399.774V95H379.806V4.376ZM599.24 27.928C597.277 25.5387 594.845 23.704 591.944 22.424C589.128 21.144 585.843 20.504 582.088 20.504C578.333 20.504 574.835 21.2293 571.592 22.68C568.435 24.1307 565.661 26.1787 563.272 28.824C560.968 31.384 559.133 34.456 557.768 38.04C556.488 41.624 555.848 45.5067 555.848 49.688C555.848 53.9547 556.488 57.88 557.768 61.464C559.133 64.9627 560.968 68.0347 563.272 70.68C565.576 73.24 568.264 75.2453 571.336 76.696C574.493 78.1467 577.864 78.872 581.448 78.872C585.544 78.872 589.171 78.0187 592.328 76.312C595.485 74.6053 598.088 72.216 600.136 69.144L616.776 81.56C612.936 86.936 608.072 90.904 602.184 93.464C596.296 96.024 590.237 97.304 584.008 97.304C576.925 97.304 570.397 96.1947 564.424 93.976C558.451 91.7573 553.288 88.6 548.936 84.504C544.584 80.3227 541.171 75.288 538.696 69.4C536.307 63.512 535.112 56.9413 535.112 49.688C535.112 42.4347 536.307 35.864 538.696 29.976C541.171 24.088 544.584 19.096 548.936 15C553.288 10.8187 558.451 7.61866 564.424 5.39999C570.397 3.18133 576.925 2.072 584.008 2.072C586.568 2.072 589.213 2.328 591.944 2.84C594.76 3.26666 597.491 3.992 600.136 5.016C602.867 6.04 605.469 7.40533 607.944 9.112C610.419 10.8187 612.637 12.9093 614.6 15.384L599.24 27.928ZM636.561 4.376H656.529V38.168H695.313V4.376H715.281V95H695.313V55.832H656.529V95H636.561V4.376ZM743.414 4.376H804.982V22.808H763.382V39.704H802.678V58.136H763.382V76.568H807.286V95H743.414V4.376ZM877.031 26.52C875.41 24.472 873.191 22.9787 870.375 22.04C867.644 21.016 865.042 20.504 862.567 20.504C861.116 20.504 859.623 20.6747 858.087 21.016C856.551 21.3573 855.1 21.912 853.735 22.68C852.37 23.3627 851.26 24.3013 850.407 25.496C849.554 26.6907 849.127 28.1413 849.127 29.848C849.127 32.5787 850.151 34.6693 852.199 36.12C854.247 37.5707 856.807 38.808 859.879 39.832C863.036 40.856 866.407 41.88 869.991 42.904C873.575 43.928 876.903 45.3787 879.975 47.256C883.132 49.1333 885.735 51.6507 887.783 54.808C889.831 57.9653 890.855 62.1893 890.855 67.48C890.855 72.5147 889.916 76.9093 888.039 80.664C886.162 84.4187 883.602 87.5333 880.359 90.008C877.202 92.4827 873.49 94.3173 869.223 95.512C865.042 96.7067 860.604 97.304 855.911 97.304C850.023 97.304 844.562 96.408 839.527 94.616C834.492 92.824 829.799 89.9227 825.447 85.912L839.655 70.296C841.703 73.0267 844.263 75.16 847.335 76.696C850.492 78.1467 853.735 78.872 857.063 78.872C858.684 78.872 860.306 78.7013 861.927 78.36C863.634 77.9333 865.127 77.336 866.407 76.568C867.772 75.8 868.839 74.8187 869.607 73.624C870.46 72.4293 870.887 71.0213 870.887 69.4C870.887 66.6693 869.82 64.536 867.687 63C865.639 61.3787 863.036 60.0133 859.879 58.904C856.722 57.7947 853.308 56.6853 849.639 55.576C845.97 54.4667 842.556 52.9733 839.399 51.096C836.242 49.2187 833.596 46.744 831.463 43.672C829.415 40.6 828.391 36.5467 828.391 31.512C828.391 26.648 829.33 22.3813 831.207 18.712C833.17 15.0427 835.73 11.9707 838.887 9.49599C842.13 7.02133 845.842 5.18666 850.023 3.992C854.204 2.712 858.514 2.072 862.951 2.072C868.071 2.072 873.02 2.79733 877.799 4.24799C882.578 5.69866 886.887 8.13066 890.727 11.544L877.031 26.52ZM914.691 4.376H941.827L980.355 67.352H980.611V4.376H1000.58V95H974.467L934.915 30.488H934.659V95H914.691V4.376ZM1028.79 4.376H1090.36V22.808H1048.76V39.704H1088.06V58.136H1048.76V76.568H1092.67V95H1028.79V4.376ZM1139.88 56.344L1105.84 4.376H1130.67L1149.87 38.296L1170.22 4.376H1193.9L1159.85 56.344V95H1139.88V56.344Z" fill="white" fill-opacity="0.2" shape-rendering="crispEdges"/>
</g>
<defs>
<filter id="filter0_d_226_35" x="0.216003" y="0.0720215" width="1197.68" height="97.232" filterUnits="userSpaceOnUse" color-interpolation-filters="sRGB">
<feFlood flood-opacity="0" result="BackgroundImageFix"/>
<feColorMatrix in="SourceAlpha" type="matrix" values="0 0 0 0 0 0 0 0 0 0 0 0 0 0 0 0 0 0 127 0" result="hardAlpha"/>
<feOffset dx="4" dy="-2"/>
<feComposite in2="hardAlpha" operator="out"/>
<feColorMatrix type="matrix" values="0 0 0 0 0 0 0 0 0 0 0 0 0 0 0 0 0 0 1 0"/>
<feBlend mode="normal" in2="BackgroundImageFix" result="effect1_dropShadow_226_35"/>
<feBlend mode="normal" in="SourceGraphic" in2="effect1_dropShadow_226_35" result="shape"/>
</filter>
</defs>
</svg>
